<?xml version="1.0" encoding="UTF-8" standalone="no"?>
<svg
   xmlns:dc="http://purl.org/dc/elements/1.1/"
   xmlns:cc="http://creativecommons.org/ns#"
   xmlns:rdf="http://www.w3.org/1999/02/22-rdf-syntax-ns#"
   xmlns:svg="http://www.w3.org/2000/svg"
   xmlns="http://www.w3.org/2000/svg"
   id="svg64"
   version="1.1"
   style="overflow:visible"
   viewBox="-240 -195 480 395"
   height="1580px"
   width="1920px">
  <metadata
     id="metadata70">
    <rdf:RDF>
      <cc:Work
         rdf:about="">
        <dc:format>image/svg+xml</dc:format>
        <dc:type
           rdf:resource="http://purl.org/dc/dcmitype/StillImage" />
      </cc:Work>
    </rdf:RDF>
  </metadata>
  <defs
     id="defs68" />
  <rect
     id="rect2"
     fill-opacity="0"
     fill="rgb(0,0,0)"
     height="395"
     width="480"
     y="-195"
     x="-240" />
  <svg
     id="svg62"
     version="1.1"
     y="-250"
     x="-250"
     viewBox="-250 -250 500 500"
     height="500"
     width="500"
     style="overflow:visible">
    <g
       style="fill:#ffffff;stroke-linejoin:round"
       id="g60">
      <path
         style="fill:#81da77;fill-opacity:1;stroke:none;stroke-linecap:butt;stroke-linejoin:round"
         id="path4"
         d="m 37.439,-156.9922 c 0.50898,0.0112 1.019609,0.0343 1.53516,0.0684 34.4838,2.28045 42.6965,36.8559 37.377,59.3633 -2.10212,8.89419 -6.86407,17.4256 -13.0488,25.6797 l -29.8877,-21.1649 -33.415,10.0516 -13.314,-28.9047 13.314,-16.9567 c 9.04908,-17.8918 21.6609,-28.4841 37.4394,-28.1367 z" />
      <path
         style="fill:#81da77;fill-opacity:1;stroke:none;stroke-linecap:butt;stroke-linejoin:round"
         id="path6"
         d="m 15.583,-92.823001 38.7764,9.54487 0.184,21.999 c -19.4775,21.6972 -45.6171,41.5998 -54.543,61.2793 l -12.4062,-54.4066 12.4062,-13.8337 z" />
      <path
         style="fill:#b6efb7;fill-opacity:1;stroke:none;stroke-linecap:butt;stroke-linejoin:round"
         id="path8"
         d="m 33.67,-100.184 c 12.9743,0.35862 24.8348,9.29259 29.6328,28.3047 -2.6851,3.58341 -5.63193,7.11533 -8.75976,10.5996 -2.12499,-16.3419 -11.5135,-25.7606 -23.4102,-25.9355 -13.935,-0.20492 -24.3597,11.1534 -31.1328,18.9746 L -7.79125,-80.5324 4e-5,-82.99451 c 8.054959,-12.1558 20.62,-17.5502 33.6699,-17.1894 z" />
      <path
         style="fill:#81da77;fill-opacity:1;stroke:none;stroke-linecap:butt;stroke-linejoin:round"
         id="path10"
         d="m -37.439,-156.9925 c -0.50898,0.0112 -1.01961,0.0343 -1.53516,0.0684 -34.4838,2.28045 -42.6965,36.8559 -37.377,59.3633 2.10212,8.89419 6.86407,17.4256 13.0488,25.6797 l 29.8877,-21.1649 33.415,10.0516 v -45.8613 c -9.04908,-17.8918 -21.6609,-28.4841 -37.4394,-28.1367 z" />
      <path
         style="fill:#81da77;fill-opacity:1;stroke:none;stroke-linecap:butt;stroke-linejoin:round"
         id="path12"
         d="m -15.583,-92.823001 -38.7764,9.54487 -0.184,21.999 c 19.4775,21.6972 45.6171,41.5998 54.543,61.2793 v -68.2402 z" />
      <path
         style="fill:#b6efb7;fill-opacity:1;stroke:none;stroke-linecap:butt;stroke-linejoin:round"
         id="path14"
         d="m -33.67,-100.184 c -12.9743,0.35862 -24.8348,9.29259 -29.6328,28.3047 2.6851,3.58341 5.63193,7.11533 8.75976,10.5996 2.12499,-16.3419 11.5135,-25.7606 23.4102,-25.9355 13.935,-0.20492 24.3597,11.1534 31.1328,18.9746 v -14.7539 c -8.05496,-12.1558 -20.62,-17.5502 -33.6699,-17.1894 z" />
      <path
         style="fill:none;stroke:#444444;stroke-width:8;stroke-linecap:butt;stroke-linejoin:round;stroke-opacity:1"
         id="path16"
         d="m -37.439,-156.9922 c -0.50898,0.0112 -1.02108,0.0339 -1.53663,0.068 -34.4838,2.28045 -42.696,36.8563 -37.3764,59.3637 8.69783,36.801 62.6906,67.4406 76.3517,97.5601 13.6611,-30.1195 67.6539,-60.7592 76.3517,-97.5601 5.31957,-22.5074 -2.89254,-57.0833 -37.3764,-59.3637 -16.498001,-1.09103 -29.6344,9.59985 -38.9753,28.0688 -9.04908,-17.8918 -21.6602,-28.4841 -37.4387,-28.1367 z" />
      <path
         style="fill:#81da77;fill-opacity:1;stroke:none;stroke-linecap:butt;stroke-linejoin:round"
         id="path18"
         d="m 156.992,37.439 c -0.0112,0.50898 -0.0343,1.019609 -0.0684,1.53516 -2.28045,34.4838 -36.8559,42.6965 -59.3633,37.377 -8.89419,-2.10212 -17.4256,-6.86407 -25.6797,-13.0488 l 21.1649,-29.8877 -10.0516,-33.415 28.9047,-13.314 16.9567,13.314 c 17.8918,9.04908 28.4841,21.6609 28.1367,37.4394 z" />
      <path
         style="fill:#81da77;fill-opacity:1;stroke:none;stroke-linecap:butt;stroke-linejoin:round"
         id="path20"
         d="m 92.822999,15.583 -9.54487,38.7764 -21.999,0.184 C 39.581929,35.0659 19.679329,8.9263 -1.71e-4,4e-4 l 54.4066,-12.4062 13.8337,12.4062 z" />
      <path
         style="fill:#b6efb7;fill-opacity:1;stroke:none;stroke-linecap:butt;stroke-linejoin:round"
         id="path22"
         d="M 100.184,33.67 C 99.82538,46.6443 90.89141,58.5048 71.8793,63.3028 68.29589,60.6177 64.76397,57.67087 61.2797,54.54304 77.621599,52.41805 87.0403,43.02954 87.2152,31.13284 87.42012,17.19784 76.0618,6.77314 68.2406,4e-5 L 80.5324,-7.79125 82.99451,4e-5 c 12.1558,8.054959 17.5502,20.62 17.1894,33.6699 z" />
      <path
         style="fill:#81da77;fill-opacity:1;stroke:none;stroke-linecap:butt;stroke-linejoin:round"
         id="path24"
         d="m 156.993,-37.439 c -0.0112,-0.50898 -0.0343,-1.01961 -0.0684,-1.53516 -2.28045,-34.4838 -36.8559,-42.6965 -59.3633,-37.377 -8.89419,2.10212 -17.4256,6.86407 -25.6797,13.0488 l 21.165,29.8877 -10.0516,33.415 h 45.8613 c 17.8918,-9.04908 28.4841,-21.6609 28.1367,-37.4394 z" />
      <path
         style="fill:#81da77;fill-opacity:1;stroke:none;stroke-linecap:butt;stroke-linejoin:round"
         id="path26"
         d="m 92.822999,-15.583 -9.54487,-38.7764 -21.999,-0.184 c -21.6972,19.4775 -41.5998,45.6171 -61.2793,54.543 h 68.2402 z" />
      <path
         style="fill:#b6efb7;fill-opacity:1;stroke:none;stroke-linecap:butt;stroke-linejoin:round"
         id="path28"
         d="m 100.184,-33.67 c -0.35862,-12.9743 -9.29259,-24.8348 -28.3047,-29.6328 -3.58341,2.6851 -7.11533,5.63193 -10.5996,8.75976 16.341899,2.12499 25.7606,11.5135 25.9355,23.4102 0.20492,13.935 -11.1534,24.3597 -18.9746,31.1328 h 14.7539 c 12.1558,-8.05496 17.5502,-20.62 17.1894,-33.6699 z" />
      <path
         style="fill:none;stroke:#444444;stroke-width:8;stroke-linecap:butt;stroke-linejoin:round;stroke-opacity:1"
         id="path30"
         d="m 156.992,-37.439 c -0.0112,-0.50898 -0.0339,-1.02108 -0.068,-1.53663 -2.28045,-34.4838 -36.8563,-42.696 -59.3637,-37.3764 -36.801,8.69783 -67.4406,62.6906 -97.5601,76.3517 30.1195,13.6611 60.7592,67.6539 97.5601,76.3517 22.5074,5.31957 57.0833,-2.89254 59.3637,-37.3764 1.09103,-16.498001 -9.59985,-29.6344 -28.0688,-38.9753 17.8918,-9.04908 28.4841,-21.6602 28.1367,-37.4387 z" />
      <path
         style="fill:#81da77;fill-opacity:1;stroke:none;stroke-linecap:butt;stroke-linejoin:round"
         id="path32"
         d="m -37.439,156.992 c -0.50898,-0.0112 -1.01961,-0.0343 -1.53516,-0.0684 -34.4838,-2.28045 -42.6965,-36.8559 -37.377,-59.3633 2.10212,-8.89419 6.86407,-17.4256 13.0488,-25.6797 l 29.8877,21.1649 33.415,-10.0516 13.314,28.9047 -13.314,16.9567 c -9.04908,17.8918 -21.6609,28.4841 -37.4394,28.1367 z" />
      <path
         style="fill:#81da77;fill-opacity:1;stroke:none;stroke-linecap:butt;stroke-linejoin:round"
         id="path34"
         d="m -15.582,92.822999 -38.7764,-9.54487 -0.184,-21.999 c 19.4775,-21.6972 45.6171,-41.5998 54.543,-61.2793 l 12.4062,54.4066 -12.4062,13.8337 z" />
      <path
         style="fill:#b6efb7;fill-opacity:1;stroke:none;stroke-linecap:butt;stroke-linejoin:round"
         id="path36"
         d="m -33.67,100.184 c -12.9743,-0.35862 -24.8348,-9.29259 -29.6328,-28.3047 2.6851,-3.58341 5.63193,-7.11533 8.75976,-10.5996 2.12499,16.341899 11.5135,25.7606 23.4102,25.9355 13.935,0.20492 24.3597,-11.1534 31.1328,-18.9746 L 7.79125,80.5324 -4e-5,82.99451 c -8.05496,12.1558 -20.62,17.5502 -33.6699,17.1894 z" />
      <path
         style="fill:#81da77;fill-opacity:1;stroke:none;stroke-linecap:butt;stroke-linejoin:round"
         id="path38"
         d="m 37.44,156.993 c 0.50898,-0.0112 1.019609,-0.0343 1.53516,-0.0684 34.4838,-2.28045 42.6965,-36.8559 37.377,-59.3633 C 74.25004,88.66711 69.48809,80.1357 63.30336,71.8816 L 33.41566,93.0466 6.6e-4,82.995 v 45.8613 c 9.04908,17.8918 21.6609,28.4841 37.4394,28.1367 z" />
      <path
         style="fill:#81da77;fill-opacity:1;stroke:none;stroke-linecap:butt;stroke-linejoin:round"
         id="path40"
         d="m 15.583,92.822999 38.7764,-9.54487 0.184,-21.999 C 35.0659,39.581929 8.9263,19.679329 4e-4,-1.71e-4 v 68.2402 z" />
      <path
         style="fill:#b6efb7;fill-opacity:1;stroke:none;stroke-linecap:butt;stroke-linejoin:round"
         id="path42"
         d="M 33.67,100.184 C 46.6443,99.82538 58.5048,90.89141 63.3028,71.8793 60.6177,68.29589 57.67087,64.76397 54.54304,61.2797 52.41805,77.621599 43.02954,87.0403 31.13284,87.2152 17.19784,87.42012 6.77314,76.0618 4e-5,68.2406 v 14.7539 c 8.054959,12.1558 20.62,17.5502 33.6699,17.1894 z" />
      <path
         style="fill:none;stroke:#444444;stroke-width:8;stroke-linecap:butt;stroke-linejoin:round;stroke-opacity:1"
         id="path44"
         d="m 37.439,156.992 c 0.50898,-0.0112 1.02108,-0.0339 1.53663,-0.068 34.4838,-2.28045 42.696,-36.8563 37.3764,-59.3637 C 67.6542,60.7593 13.66143,30.1197 3.3e-4,2e-4 c -13.6611,30.1195 -67.6539,60.7592 -76.3517,97.5601 -5.31957,22.5074 2.89254,57.0833 37.3764,59.3637 16.498,1.09103 29.6344,-9.59985 38.9753,-28.0688 9.04908,17.8918 21.6602,28.4841 37.4387,28.1367 z" />
      <path
         style="fill:#81da77;fill-opacity:1;stroke:none;stroke-linecap:butt;stroke-linejoin:round"
         id="path46"
         d="m -156.9922,-37.44 c 0.0112,-0.50898 0.0343,-1.01961 0.0684,-1.53516 2.28045,-34.4838 36.8559,-42.6965 59.3633,-37.377 8.89419,2.10212 17.4256,6.86407 25.6797,13.0488 l -21.1649,29.8877 10.0516,33.415 -28.9047,13.314 -16.9567,-13.314 c -17.8918,-9.04908 -28.4841,-21.6609 -28.1367,-37.4394 z" />
      <path
         style="fill:#81da77;fill-opacity:1;stroke:none;stroke-linecap:butt;stroke-linejoin:round"
         id="path48"
         d="m -92.823001,-15.583 9.54487,-38.7764 21.999,-0.184 c 21.6972,19.4775 41.5998,45.6171 61.2793,54.543 l -54.4066,12.4062 -13.8337,-12.4062 z" />
      <path
         style="fill:#b6efb7;fill-opacity:1;stroke:none;stroke-linecap:butt;stroke-linejoin:round"
         id="path50"
         d="m -100.184,-33.67 c 0.35862,-12.9743 9.29259,-24.8348 28.3047,-29.6328 3.58341,2.6851 7.11533,5.63193 10.5996,8.75976 -16.3419,2.12499 -25.7606,11.5135 -25.9355,23.4102 -0.20492,13.935 11.1534,24.3597 18.9746,31.1328 L -80.5324,7.79125 -82.99451,-4e-5 c -12.1558,-8.05496 -17.5502,-20.62 -17.1894,-33.6699 z" />
      <path
         style="fill:#81da77;fill-opacity:1;stroke:none;stroke-linecap:butt;stroke-linejoin:round"
         id="path52"
         d="m -156.9926,37.439 c 0.0112,0.50898 0.0343,1.019609 0.0684,1.53516 2.28045,34.4838 36.8559,42.6965 59.3633,37.377 8.89419,-2.10212 17.4256,-6.86407 25.6797,-13.0488 l -21.165,-29.8877 10.0516,-33.415 h -45.8613 c -17.8918,9.04908 -28.4841,21.6609 -28.1367,37.4394 z" />
      <path
         style="fill:#81da77;fill-opacity:1;stroke:none;stroke-linecap:butt;stroke-linejoin:round"
         id="path54"
         d="m -92.823001,15.581999 9.54487,38.7764 21.999,0.184 c 21.6972,-19.4775 41.5998,-45.6171 61.2793,-54.543 h -68.2402 z" />
      <path
         style="fill:#b6efb7;fill-opacity:1;stroke:none;stroke-linecap:butt;stroke-linejoin:round"
         id="path56"
         d="m -100.184,33.67 c 0.35862,12.9743 9.29259,24.8348 28.3047,29.6328 3.58341,-2.6851 7.11533,-5.63193 10.5996,-8.75976 -16.3419,-2.12499 -25.7606,-11.5135 -25.9355,-23.4102 -0.20492,-13.935 11.1534,-24.3597 18.9746,-31.1328 h -14.7539 c -12.1558,8.054959 -17.5502,20.62 -17.1894,33.6699 z" />
      <path
         style="fill:none;stroke:#444444;stroke-width:8;stroke-linecap:butt;stroke-linejoin:round;stroke-opacity:1"
         id="path58"
         d="m -156.9922,37.437999 c 0.0112,0.50898 0.0339,1.02108 0.068,1.53663 2.28045,34.4838 36.8563,42.696 59.3637,37.3764 36.801,-8.69783 67.4406,-62.6906 97.5601,-76.3517 -30.1195,-13.6611 -60.7592,-67.6539 -97.5601,-76.3517 -22.5074,-5.31957 -57.0833,2.89254 -59.3637,37.3764 -1.09103,16.498 9.59985,29.6344 28.0688,38.9753 -17.8918,9.04908 -28.4841,21.6602 -28.1367,37.4387 z" />
    </g>
  </svg>
</svg>
